<svg xmlns="http://www.w3.org/2000/svg" width="16" height="16" viewBox="0 0 16 16" fill="none">
  <path d="M8.00016 15.1673C4.04683 15.1673 0.833496 11.954 0.833496 8.00065C0.833496 4.04732 4.04683 0.833984 8.00016 0.833984C11.9535 0.833984 15.1668 4.04732 15.1668 8.00065C15.1668 11.954 11.9535 15.1673 8.00016 15.1673ZM8.00016 1.83398C4.60016 1.83398 1.8335 4.60065 1.8335 8.00065C1.8335 11.4007 4.60016 14.1673 8.00016 14.1673C11.4002 14.1673 14.1668 11.4007 14.1668 8.00065C14.1668 4.60065 11.4002 1.83398 8.00016 1.83398Z" fill="#244D24"/>
  <path d="M10.6668 8.5H5.3335C5.06016 8.5 4.8335 8.27333 4.8335 8C4.8335 7.72667 5.06016 7.5 5.3335 7.5H10.6668C10.9402 7.5 11.1668 7.72667 11.1668 8C11.1668 8.27333 10.9402 8.5 10.6668 8.5Z" fill="#244D24"/>
  <path d="M8 11.1673C7.72667 11.1673 7.5 10.9407 7.5 10.6673V5.33398C7.5 5.06065 7.72667 4.83398 8 4.83398C8.27333 4.83398 8.5 5.06065 8.5 5.33398V10.6673C8.5 10.9407 8.27333 11.1673 8 11.1673Z" fill="#244D24"/>
</svg>