<svg width="17" height="17" viewBox="0 0 17 17" fill="none" xmlns="http://www.w3.org/2000/svg">
<path d="M10.833 10.9998C10.713 10.9998 10.5797 10.9932 10.4597 10.9865C10.213 10.9732 10.013 10.7732 9.993 10.5265C9.84633 8.66651 8.33301 7.15983 6.47968 7.01316C6.23301 6.99316 6.03301 6.79318 6.01967 6.54651C6.01301 6.42651 6.00635 6.29318 6.00635 6.17318C6.00635 3.50651 8.17301 1.33984 10.8397 1.33984C13.5063 1.33984 15.673 3.50651 15.673 6.17318C15.673 8.83984 13.4997 10.9998 10.833 10.9998ZM6.99967 6.07316C8.98634 6.42649 10.5797 8.01317 10.9264 9.99984C12.9997 9.9465 14.6663 8.25317 14.6663 6.1665C14.6663 4.05317 12.9463 2.33317 10.833 2.33317C8.75301 2.33317 7.05301 3.99983 6.99967 6.07316Z" fill="#333333"/>
<path d="M6.16683 15.6667C3.50016 15.6667 1.3335 13.5 1.3335 10.8333C1.3335 8.16667 3.50016 6 6.16683 6C6.28683 6 6.42016 6.00666 6.54016 6.01333C8.89349 6.19999 10.8002 8.10668 10.9802 10.4467C10.9868 10.58 10.9935 10.7133 10.9935 10.8333C11.0002 13.5 8.8335 15.6667 6.16683 15.6667ZM6.16683 7C4.0535 7 2.3335 8.72 2.3335 10.8333C2.3335 12.9467 4.0535 14.6667 6.16683 14.6667C8.28016 14.6667 10.0002 12.9467 10.0002 10.8333C10.0002 10.7267 9.9935 10.62 9.98684 10.5133C9.84017 8.66666 8.32682 7.15334 6.47349 7.00667C6.38016 7.00667 6.2735 7 6.16683 7Z" fill="#333333"/>
<path d="M6.16667 13.0008C5.98667 13.0008 5.81333 12.9008 5.72666 12.7408L5.20667 11.7942L4.26001 11.2742C4.10001 11.1875 4 11.0208 4 10.8342C4 10.6475 4.10001 10.4808 4.26001 10.3942L5.20667 9.87416L5.72666 8.9275C5.9 8.6075 6.42667 8.6075 6.60667 8.9275L7.12667 9.87416L8.07332 10.3942C8.23332 10.4808 8.33333 10.6475 8.33333 10.8342C8.33333 11.0208 8.23332 11.1875 8.07332 11.2742L7.12667 11.7942L6.60667 12.7408C6.52 12.9008 6.34667 13.0008 6.16667 13.0008ZM5.54 10.8342L5.81333 10.9875C5.9 11.0342 5.96666 11.1008 6.01333 11.1875L6.16667 11.4608L6.32001 11.1875C6.36667 11.1008 6.43333 11.0342 6.52 10.9875L6.79333 10.8342L6.52 10.6808C6.43333 10.6341 6.36667 10.5675 6.32001 10.4808L6.16667 10.2075L6.01333 10.4808C5.96666 10.5675 5.9 10.6341 5.81333 10.6808L5.54 10.8342Z" fill="#333333"/>
</svg>
