<svg xmlns="http://www.w3.org/2000/svg" width="17" height="16" viewBox="0 0 17 16" fill="none">
  <path d="M7.53985 15.1405C6.81985 15.1405 6.09318 14.9338 5.53318 14.5138L2.67985 12.3805C1.92652 11.8205 1.33984 10.6405 1.33984 9.69381V4.75381C1.33984 3.73381 2.08652 2.64713 3.04652 2.28713L6.36652 1.04047C7.02652 0.793802 8.05985 0.793802 8.71985 1.04047L12.0332 2.28713C12.8132 2.58047 13.4732 3.36047 13.6865 4.22713C13.7198 4.3738 13.6865 4.53381 13.5932 4.65381C13.4998 4.77381 13.3532 4.84713 13.1999 4.84713L7.92651 4.8538C7.07985 4.90714 6.87318 5.04715 6.87318 6.28048V9.90047C6.87318 11.1738 7.03985 11.3338 8.33318 11.3338H12.2798C12.4865 11.3338 12.6732 11.4605 12.7465 11.6538C12.8198 11.8471 12.7665 12.0671 12.6132 12.2071C12.5398 12.2671 12.4798 12.3271 12.4065 12.3805L9.55318 14.5205C8.97985 14.9338 8.25985 15.1405 7.53985 15.1405ZM7.53985 1.86048C7.23985 1.86048 6.93319 1.90048 6.71319 1.98714L3.39318 3.23381C2.83318 3.44714 2.33318 4.16047 2.33318 4.76713V9.70714C2.33318 10.3338 2.77318 11.2138 3.27318 11.5871L6.12652 13.7205C6.89318 14.2871 8.17985 14.2871 8.94651 13.7205L10.7932 12.3405H8.32652C6.48652 12.3405 5.86652 11.7271 5.86652 9.90713V6.28713C5.86652 4.86713 6.20651 3.96714 7.89318 3.86048L8.32652 3.8538H12.4265C12.2265 3.56714 11.9599 3.34047 11.6799 3.23381L8.36652 1.98714C8.13985 1.90048 7.83985 1.86048 7.53985 1.86048Z" fill="#333333"/>
  <path d="M15.1667 7.98047H6.3667C6.09337 7.98047 5.8667 7.7538 5.8667 7.48047C5.8667 7.20714 6.09337 6.98047 6.3667 6.98047H15.1667C15.44 6.98047 15.6667 7.20714 15.6667 7.48047C15.6667 7.7538 15.44 7.98047 15.1667 7.98047Z" fill="#333333"/>
  <path d="M13.2067 12.3324H8.3267C6.4867 12.3324 5.8667 11.719 5.8667 9.89905V6.27905C5.8667 4.85905 6.20669 3.95904 7.89336 3.85238L8.3267 3.8457H13.2067C15.0467 3.8457 15.6667 4.45905 15.6667 6.27905V9.97904C15.6534 11.739 15.0334 12.3324 13.2067 12.3324ZM8.3267 4.8457L7.92003 4.85238C7.07337 4.90571 6.8667 5.04572 6.8667 6.27905V9.89905C6.8667 11.1724 7.03337 11.3324 8.3267 11.3324H13.2067C14.48 11.3324 14.6534 11.1657 14.6667 9.97904V6.28571C14.6667 5.01237 14.5 4.85238 13.2067 4.85238H8.3267V4.8457Z" fill="#333333"/>
  <path d="M8.93337 10.6738H8.04004C7.76671 10.6738 7.54004 10.4472 7.54004 10.1738C7.54004 9.90049 7.76671 9.67383 8.04004 9.67383H8.93337C9.2067 9.67383 9.43337 9.90049 9.43337 10.1738C9.43337 10.4472 9.21337 10.6738 8.93337 10.6738Z" fill="#333333"/>
  <path d="M12.5135 10.6738H10.3335C10.0602 10.6738 9.8335 10.4472 9.8335 10.1738C9.8335 9.90049 10.0602 9.67383 10.3335 9.67383H12.5135C12.7868 9.67383 13.0135 9.90049 13.0135 10.1738C13.0135 10.4472 12.7935 10.6738 12.5135 10.6738Z" fill="#333333"/>
</svg>