<svg width="24" height="24" viewBox="0 0 24 24" fill="none" xmlns="http://www.w3.org/2000/svg">
<rect x="0.5" y="0.5" width="23" height="23" rx="11.5" stroke="#EBEBEB"/>
<path d="M12.0002 19.1673C8.04683 19.1673 4.8335 15.954 4.8335 12.0007C4.8335 8.04732 8.04683 4.83398 12.0002 4.83398C15.9535 4.83398 19.1668 8.04732 19.1668 12.0007C19.1668 15.954 15.9535 19.1673 12.0002 19.1673ZM12.0002 5.83398C8.60016 5.83398 5.8335 8.60065 5.8335 12.0007C5.8335 15.4007 8.60016 18.1673 12.0002 18.1673C15.4002 18.1673 18.1668 15.4007 18.1668 12.0007C18.1668 8.60065 15.4002 5.83398 12.0002 5.83398Z" fill="#292D32"/>
<path d="M10.1136 14.3869C9.9869 14.3869 9.86023 14.3402 9.76023 14.2402C9.5669 14.0469 9.5669 13.7269 9.76023 13.5336L13.5336 9.76023C13.7269 9.5669 14.0469 9.5669 14.2402 9.76023C14.4336 9.95357 14.4336 10.2736 14.2402 10.4669L10.4669 14.2402C10.3736 14.3402 10.2402 14.3869 10.1136 14.3869Z" fill="#292D32"/>
<path d="M13.8869 14.3869C13.7602 14.3869 13.6336 14.3402 13.5336 14.2402L9.76023 10.4669C9.5669 10.2736 9.5669 9.95357 9.76023 9.76023C9.95357 9.5669 10.2736 9.5669 10.4669 9.76023L14.2402 13.5336C14.4336 13.7269 14.4336 14.0469 14.2402 14.2402C14.1402 14.3402 14.0136 14.3869 13.8869 14.3869Z" fill="#292D32"/>
</svg>
