<svg xmlns="http://www.w3.org/2000/svg" width="16" height="16" viewBox="0 0 16 16" fill="none">
  <path d="M7.99992 15.1673C4.04659 15.1673 0.833252 11.954 0.833252 8.00065C0.833252 4.04732 4.04659 0.833984 7.99992 0.833984C11.9533 0.833984 15.1666 4.04732 15.1666 8.00065C15.1666 11.954 11.9533 15.1673 7.99992 15.1673ZM7.99992 1.83398C4.59992 1.83398 1.83325 4.60065 1.83325 8.00065C1.83325 11.4007 4.59992 14.1673 7.99992 14.1673C11.3999 14.1673 14.1666 11.4007 14.1666 8.00065C14.1666 4.60065 11.3999 1.83398 7.99992 1.83398Z" fill="#3D663D"/>
  <path d="M6.11332 10.3869C5.98666 10.3869 5.85999 10.3402 5.75999 10.2402C5.56666 10.0469 5.56666 9.7269 5.75999 9.53357L9.53332 5.76023C9.72666 5.5669 10.0467 5.5669 10.24 5.76023C10.4333 5.95357 10.4333 6.27357 10.24 6.4669L6.46666 10.2402C6.37332 10.3402 6.23999 10.3869 6.11332 10.3869Z" fill="#3D663D"/>
  <path d="M9.88666 10.3869C9.75999 10.3869 9.63332 10.3402 9.53332 10.2402L5.75999 6.4669C5.56666 6.27357 5.56666 5.95357 5.75999 5.76023C5.95332 5.5669 6.27332 5.5669 6.46666 5.76023L10.24 9.53357C10.4333 9.7269 10.4333 10.0469 10.24 10.2402C10.14 10.3402 10.0133 10.3869 9.88666 10.3869Z" fill="#3D663D"/>
</svg>