<svg width="173" height="173" viewBox="0 0 173 173" fill="none" xmlns="http://www.w3.org/2000/svg">
<g clip-path="url(#clip0_4551_26007)">
<mask id="mask0_4551_26007" style="mask-type:luminance" maskUnits="userSpaceOnUse" x="0" y="0" width="173" height="173">
<path d="M173 0H0V173H173V0Z" fill="white"/>
</mask>
<g mask="url(#mask0_4551_26007)">
<path d="M70.843 15.8791C62.8681 18.3362 55.6579 29.6161 55.1935 39.853C54.7343 49.979 61.1953 52.0305 62.0418 62.8131C62.9368 74.2138 56.3971 80.6286 51.6532 92.3929C44.5538 109.998 41.8385 138.684 54.1482 154.08C68.4492 171.966 100.936 169.296 110.774 153.834C119.706 139.797 104.61 123.64 114.637 103.539C122.965 86.8452 137.868 88.9898 143.329 72.4602C146.978 61.4144 144.72 47.1454 137.999 38.9239C127.68 26.3009 115.037 37.9617 91.6749 25.133C81.2452 19.4058 77.7178 13.7609 70.843 15.8791Z" fill="#F8F8F8"/>
<path d="M99.729 64.5306C100.643 67.1736 103.574 78.8394 103.838 81.5092C104.132 84.4772 98.8905 85.1672 95.9955 84.4506C90.7922 83.1627 88.0061 82.4788 80.6963 82.4109C80.6963 82.4109 58.3014 86.1065 73.8627 54.8385C75.3468 51.8564 78.2042 45.4922 80.5527 45.4922L84.1015 51.5543L91.0373 47.4605C93.6969 45.63 96.3263 45.6903 98.6858 46.9272" fill="#F6FFF0"/>
<path d="M99.729 64.5306C100.643 67.1736 103.574 78.8394 103.838 81.5092C104.132 84.4772 98.8905 85.1672 95.9955 84.4506C90.7922 83.1627 88.0061 82.4788 80.6963 82.4109C80.6963 82.4109 58.3014 86.1065 73.8627 54.8385C75.3468 51.8564 78.2042 45.4922 80.5527 45.4922L84.1015 51.5543L91.0373 47.4605C93.6969 45.63 96.3263 45.6903 98.6858 46.9272" stroke="black" stroke-width="0.71795" stroke-miterlimit="10" stroke-linecap="round"/>
<path d="M100.65 86.3652C95.7998 99.5017 98.7196 124.876 101.868 140.136" stroke="black" stroke-width="0.71795" stroke-miterlimit="10" stroke-linecap="round"/>
<path d="M85.5709 98.0703C83.9625 113.665 86.5876 129.081 86.1452 144.108" stroke="black" stroke-width="0.71795" stroke-miterlimit="10" stroke-linecap="round"/>
<path d="M73.6132 90.1094C70.9275 106.223 75.8453 120.427 76.3395 135.586" stroke="black" stroke-width="0.71795" stroke-miterlimit="10" stroke-linecap="round"/>
<path d="M74.4983 146.975L73.1882 148.127L67.3295 150.763C66.3027 151.225 65.77 152.411 66.1827 153.458C66.3221 153.813 66.5635 154.157 66.9588 154.445" stroke="black" stroke-width="0.71795" stroke-miterlimit="10" stroke-linecap="round"/>
<path d="M87.5033 152.588L87.0505 149.008" stroke="black" stroke-width="0.71795" stroke-miterlimit="10" stroke-linecap="round"/>
<path d="M87.8204 155.731L87.5034 152.586L66.5544 154.48L66.7846 156.583C66.8293 157.076 67.2654 157.44 67.7589 157.396L87.8204 155.731Z" stroke="black" stroke-width="0.71795" stroke-miterlimit="10" stroke-linecap="round"/>
<path d="M73.189 148.125C73.189 148.125 75.5401 149.918 76.6258 149.067" stroke="black" stroke-width="0.71795" stroke-miterlimit="10" stroke-linecap="round"/>
<path d="M76.6276 140.062C76.6276 143.046 72.3182 143.67 72.5201 144.72C73.0722 147.592 79.0125 148.503 81.1313 148.829C83.0986 149.13 86.0346 149.33 89.6412 148.634" stroke="black" stroke-width="0.71795" stroke-miterlimit="10" stroke-linecap="round"/>
<path d="M101.251 151.486L101.379 155.093H80.751C80.3833 154.77 80.174 154.406 80.0671 154.041C79.7503 152.961 80.3876 151.827 81.4519 151.459L87.524 149.362L88.9323 148.332" fill="#EEFFEE"/>
<path d="M101.251 151.486L101.379 155.093H80.751C80.3833 154.77 80.174 154.406 80.0671 154.041C79.7503 152.961 80.3876 151.827 81.4519 151.459L87.524 149.362L88.9323 148.332" stroke="black" stroke-width="0.71795" stroke-miterlimit="10" stroke-linecap="round"/>
<path d="M81.2412 158.074C80.7459 158.074 80.3442 157.672 80.3442 157.177V155.09H80.7503H101.378V157.177C101.378 157.672 100.977 158.074 100.481 158.074H81.2412Z" fill="#EEFFEE"/>
<path d="M81.2412 158.074C80.7459 158.074 80.3442 157.672 80.3442 157.177V155.09H80.7503H101.378V157.177C101.378 157.672 100.977 158.074 100.481 158.074H81.2412Z" stroke="black" stroke-width="0.71795" stroke-miterlimit="10" stroke-linecap="round"/>
<path d="M87.5244 149.361C87.5244 149.361 89.7047 151.358 90.8626 150.608L87.5244 149.361Z" fill="#EEFFEE"/>
<path d="M87.5244 149.361C87.5244 149.361 89.7047 151.358 90.8626 150.608" stroke="black" stroke-width="0.71795" stroke-miterlimit="10" stroke-linecap="round"/>
<path d="M86.3452 142.473C85.5637 143.272 84.9026 144.271 85.0091 145.335C85.3005 148.245 91.1348 149.687 93.2159 150.202C95.1479 150.68 98.054 151.143 101.709 150.775" fill="#EEFFEE"/>
<path d="M86.3452 142.473C85.5637 143.272 84.9026 144.271 85.0091 145.335C85.3005 148.245 91.1348 149.687 93.2159 150.202C95.1479 150.68 98.054 151.143 101.709 150.775" stroke="black" stroke-width="0.71795" stroke-miterlimit="10" stroke-linecap="round"/>
<path d="M85.1817 82.6258C85.4511 85.5727 85.7207 87.6232 86.1619 91.0112C75.027 94.4008 68.1459 95.8986 56.2375 99.0875C55.6758 95.3099 55.509 93.1561 55.0548 89.4731" fill="#FFFEEC"/>
<path d="M85.1817 82.6258C85.4511 85.5727 85.7207 87.6232 86.1619 91.0112C75.027 94.4008 68.1459 95.8986 56.2375 99.0875C55.6758 95.3099 55.509 93.1561 55.0548 89.4731" stroke="black" stroke-width="0.71795" stroke-miterlimit="10" stroke-linecap="round"/>
<path d="M54.3749 89.6051C54.3197 93.7467 54.7473 95.5888 54.8236 99.389C47.4999 98.3075 46.1068 97.2819 37.8505 95.8916C38.0619 91.7079 37.9393 92.4366 37.9655 88.547" fill="#FFFEEC"/>
<path d="M54.3749 89.6051C54.3197 93.7467 54.7473 95.5888 54.8236 99.389C47.4999 98.3075 46.1068 97.2819 37.8505 95.8916C38.0619 91.7079 37.9393 92.4366 37.9655 88.547" stroke="black" stroke-width="0.71795" stroke-miterlimit="10" stroke-linecap="round"/>
<path d="M55.3063 61.1606C64.8647 61.6431 71.2282 59.2663 81.8641 58.5511C81.3532 66.5145 81.8972 72.9437 85.3193 83.0413C76.1169 86.5765 64.1208 88.1189 54.3749 89.6029C47.9934 89.1225 44.3471 89.0252 37.9655 88.5448C37.2802 79.3193 35.8373 71.0958 33.8087 65.3393C39.8945 63.6883 49.2205 62.8117 55.3063 61.1606Z" fill="#FFFEEC"/>
<path d="M55.3063 61.1606C64.8647 61.6431 71.2282 59.2663 81.8641 58.5511C81.3532 66.5145 81.8972 72.9437 85.3193 83.0413C76.1169 86.5765 64.1208 88.1189 54.3749 89.6029C47.9934 89.1225 44.3471 89.0252 37.9655 88.5448C37.2802 79.3193 35.8373 71.0958 33.8087 65.3393C39.8945 63.6883 49.2205 62.8117 55.3063 61.1606Z" stroke="black" stroke-width="0.71795" stroke-miterlimit="10" stroke-linecap="round"/>
<path d="M33.8091 65.3379C39.93 65.477 44.7396 65.7378 50.3965 65.5144C51.8623 74.4257 52.9373 80.4282 54.4032 89.3393" fill="#FFFEEC"/>
<path d="M33.8091 65.3379C39.93 65.477 44.7396 65.7378 50.3965 65.5144C51.8623 74.4257 52.9373 80.4282 54.4032 89.3393" stroke="black" stroke-width="0.71795" stroke-miterlimit="10" stroke-linecap="round"/>
<path d="M50.4548 65.5718C60.2927 63.5112 72.0265 60.6134 81.8642 58.5528" stroke="black" stroke-width="0.71795" stroke-miterlimit="10" stroke-linecap="round"/>
<path d="M41.9392 65.5558C41.9392 65.5558 46.7608 89.0295 45.9858 88.9713" stroke="black" stroke-width="0.71795" stroke-miterlimit="10" stroke-linecap="round"/>
<path d="M45.842 83.2761L44.335 83.4616C44.0447 77.6077 42.8133 71.1006 42.8133 71.1006L44.3202 70.9151C44.3202 70.9151 45.3334 77.3895 45.842 83.2761Z" fill="white"/>
<path d="M45.842 83.2761L44.335 83.4616C44.0447 77.6077 42.8133 71.1006 42.8133 71.1006L44.3202 70.9151C44.3202 70.9151 45.3334 77.3895 45.842 83.2761Z" stroke="black" stroke-width="0.71795" stroke-miterlimit="10" stroke-linecap="round"/>
<path d="M96.0424 43.2734C110.345 46.1364 110.013 66.7237 99.8157 70.9227C97.5104 71.872 94.1008 72.8206 91.7959 73.771" fill="#F6FFF0"/>
<path d="M96.0424 43.2734C110.345 46.1364 110.013 66.7237 99.8157 70.9227C97.5104 71.872 94.1008 72.8206 91.7959 73.771" stroke="black" stroke-width="0.71795" stroke-miterlimit="10" stroke-linecap="round"/>
<path d="M79.5756 70.0017C78.9872 68.7711 80.3486 67.2767 81.7095 67.3695C83.0703 67.4625 84.1396 68.6452 84.6188 69.9223C85.098 71.1992 85.1342 72.5921 85.3468 73.9394C85.5595 75.2868 86.0094 76.6915 86.8374 77.8744C85.6951 76.6969 84.0097 74.8355 82.8674 73.6579" fill="#294229"/>
<path d="M79.5756 70.0017C78.9872 68.7711 80.3486 67.2767 81.7095 67.3695C83.0703 67.4625 84.1396 68.6452 84.6188 69.9223C85.098 71.1992 85.1342 72.5921 85.3468 73.9394C85.5595 75.2868 86.0094 76.6915 86.8374 77.8744C85.6951 76.6969 84.0097 74.8355 82.8674 73.6579" stroke="black" stroke-width="0.71795" stroke-miterlimit="10" stroke-linecap="round"/>
<path d="M82.2732 68.8955L75.9992 70.6816L73.1783 70.3092C72.2929 70.1925 71.6496 71.1307 72.0779 71.9144C72.0779 71.9144 67.1387 72.3105 68.1608 75.6334C68.9759 78.2832 74.2692 80.7601 76.5148 74.7314L84.7051 72.9627" fill="#EEFFEE"/>
<path d="M82.2732 68.8955L75.9992 70.6816L73.1783 70.3092C72.2929 70.1925 71.6496 71.1307 72.0779 71.9144C72.0779 71.9144 67.1387 72.3105 68.1608 75.6334C68.9759 78.2832 74.2692 80.7601 76.5148 74.7314L84.7051 72.9627" stroke="black" stroke-width="0.71795" stroke-miterlimit="10" stroke-linecap="round"/>
<path d="M80.575 69.3789L86.0346 67.8246L87.4497 72.3699L84.1794 73.0761" fill="#897361"/>
<path d="M80.575 69.3789L86.0346 67.8246L87.4497 72.3699L84.1794 73.0761" stroke="black" stroke-width="0.71795" stroke-miterlimit="10" stroke-linecap="square"/>
<path d="M80.2801 67.8384C80.6878 67.5244 81.1981 67.3359 81.7084 67.3707C83.0693 67.4635 84.1385 68.6464 84.6178 69.9235C85.0971 71.2005 85.1331 72.5933 85.3458 73.9407C85.5585 75.288 86.0084 76.6927 86.8364 77.8758L86.7404 77.7346C87.5279 79.0315 90.9898 78.3473 93.1143 78.9095C91.5335 73.9199 91.3458 67.6361 86.3609 64.5691" fill="#F6FFF0"/>
<path d="M80.2801 67.8384C80.6878 67.5244 81.1981 67.3359 81.7084 67.3707C83.0693 67.4635 84.1385 68.6464 84.6178 69.9235C85.0971 71.2005 85.1331 72.5933 85.3458 73.9407C85.5585 75.288 86.0084 76.6927 86.8364 77.8758L86.7404 77.7346C87.5279 79.0315 90.9898 78.3473 93.1143 78.9095C91.5335 73.9199 91.3458 67.6361 86.3609 64.5691" stroke="black" stroke-width="0.71795" stroke-miterlimit="10" stroke-linecap="round"/>
<path d="M79.8948 68.1531C82.5556 65.4636 86.8776 64.8255 89.7559 63.3489C94.5133 61.2401 94.6254 60.6874 93.3447 55.1817" stroke="black" stroke-width="0.71795" stroke-miterlimit="10" stroke-linecap="round"/>
<path d="M90.2378 74.9628C90.475 75.3907 90.3204 75.9298 89.8925 76.167C89.4647 76.4042 88.9257 76.2495 88.6885 75.8216C88.4513 75.3937 88.6058 74.8547 89.0337 74.6175C89.4615 74.3803 90.0007 74.5349 90.2378 74.9628Z" stroke="black" stroke-width="0.71795" stroke-miterlimit="10" stroke-linecap="round"/>
<path d="M86.8219 29.2577C87.9643 30.287 88.1195 30.5934 88.0938 32.6128C88.0497 36.0708 88.3154 39.0855 89.6495 42.276C90.9837 45.4664 93.5194 48.2938 96.8296 49.2947C100.14 50.2956 104.18 49.0877 105.872 46.0712C107.563 43.0549 106.049 38.5326 102.704 37.6563C99.1291 36.7201 97.1113 32.7644 96.8879 29.076C96.8376 28.2458 96.1288 27.5049 95.3016 27.4179C94.4744 27.3309 86.8219 29.2577 86.8219 29.2577Z" fill="white"/>
<path d="M86.8219 29.2577C87.9643 30.287 88.1195 30.5934 88.0938 32.6128C88.0497 36.0708 88.3154 39.0855 89.6495 42.276C90.9837 45.4664 93.5194 48.2938 96.8296 49.2947C100.14 50.2956 104.18 49.0877 105.872 46.0712C107.563 43.0549 106.049 38.5326 102.704 37.6563C99.1291 36.7201 97.1113 32.7644 96.8879 29.076C96.8376 28.2458 96.1288 27.5049 95.3016 27.4179C94.4744 27.3309 86.8219 29.2577 86.8219 29.2577Z" fill="white" stroke="black" stroke-width="0.71795" stroke-miterlimit="10" stroke-linecap="round"/>
<path d="M84.1583 39.7054C84.1888 41.5753 83.8666 44.2968 83.0866 45.4168" stroke="black" stroke-width="0.71795" stroke-miterlimit="10" stroke-linecap="round"/>
<path d="M78.6646 32.6797C79.2176 34.4966 79.149 34.2714 79.7021 36.0883C80.3554 38.2347 82.615 39.771 84.8511 39.5892C87.0874 39.4073 89.0691 37.5262 89.3671 35.3024" stroke="black" stroke-width="0.71795" stroke-miterlimit="10" stroke-linecap="round"/>
<path d="M73.0132 29.4358L79.0128 27.104C79.2129 23.1014 82.9799 19.6211 86.9859 19.7376C90.9919 19.8541 94.5502 23.5475 94.5174 27.555C85.705 30.974 80.8862 31.2354 78.0245 30.7302C74.9135 30.1809 74.1154 28.7256 73.0132 29.4358C72.1945 29.9633 72.0882 31.2246 72.6377 32.0287C73.187 32.8328 74.2088 33.2083 75.1825 33.2206C76.1563 33.2332 77.6832 32.8107 78.6117 32.5168L78.0245 30.7302" fill="#F6FFF0"/>
<path d="M73.0132 29.4358L79.0128 27.104C79.2129 23.1013 82.9799 19.6211 86.9859 19.7376C90.9919 19.8541 94.5502 23.5475 94.5174 27.555C85.705 30.974 80.8862 31.2354 78.0245 30.7302M73.0132 29.4358C74.1154 28.7256 74.9135 30.1809 78.0245 30.7302M73.0132 29.4358C72.1945 29.9633 72.0882 31.2246 72.6377 32.0287C73.187 32.8328 74.2088 33.2083 75.1825 33.2206C76.1563 33.2332 77.6832 32.8107 78.6117 32.5168L78.0245 30.7302" stroke="black" stroke-width="0.71795" stroke-miterlimit="10" stroke-linecap="round"/>
<path d="M78.4331 30.7952C78.2925 30.7754 78.1565 30.7537 78.0246 30.7305C74.9136 30.1813 74.1154 28.7258 73.0132 29.4361C72.1945 29.9637 72.0882 31.2248 72.6375 32.029C73.187 32.8331 74.2088 33.2086 75.1825 33.221C76.1563 33.2335 77.6832 32.811 78.6117 32.5169L78.0246 30.7305" fill="#294229"/>
<path d="M78.4331 30.7952C78.2925 30.7754 78.1565 30.7537 78.0246 30.7305M78.0246 30.7305C74.9136 30.1813 74.1154 28.7258 73.0132 29.4361C72.1945 29.9637 72.0882 31.2248 72.6375 32.029C73.187 32.8331 74.2088 33.2086 75.1825 33.221C76.1563 33.2335 77.6832 32.811 78.6117 32.5169L78.0246 30.7305Z" stroke="black" stroke-width="0.71795" stroke-miterlimit="10" stroke-linecap="round"/>
<path d="M80.1516 33.9922C80.1516 33.9922 81.2959 34.4709 82.094 34.0644L80.1516 33.9922Z" fill="#294229"/>
<path d="M80.1516 33.9922C80.1516 33.9922 81.2959 34.4709 82.094 34.0644" stroke="black" stroke-width="0.71795" stroke-miterlimit="10" stroke-linecap="round"/>
<path d="M83.4347 33.993C83.4347 33.993 84.5539 34.1857 85.352 33.7792L83.4347 33.993Z" fill="#294229"/>
<path d="M83.4347 33.993C83.4347 33.993 84.5539 34.1857 85.352 33.7792" stroke="black" stroke-width="0.71795" stroke-miterlimit="10" stroke-linecap="round"/>
<path d="M83.5021 23.7435C83.2299 23.717 83.0128 23.7607 82.8328 23.9786C82.6983 24.1413 82.6101 24.3701 82.8073 24.5203C83.0794 24.7274 83.6209 24.6447 83.7347 25.0575C83.806 25.3164 83.497 25.3754 83.3077 25.3385C83.0993 25.2978 82.9512 25.1572 82.8493 24.9796C82.8133 24.9168 82.505 25.1921 82.5725 25.3097C82.9096 25.8973 83.6932 25.733 83.9838 25.1881C84.1229 24.927 84.0446 24.6479 83.8039 24.4765C83.6735 24.3837 83.5128 24.3426 83.3625 24.2952C83.3058 24.2774 83.0714 24.2432 83.0537 24.1644C83.0259 24.0407 83.1567 24.0775 83.2666 24.0882C83.3858 24.0997 83.6034 23.7533 83.5021 23.7435Z" fill="white"/>
<path d="M82.3241 23.8637L81.8869 23.902C81.8537 23.9049 81.8186 23.93 81.7933 23.9484C81.7495 23.9802 81.7066 24.0205 81.6719 24.0618C81.645 24.0938 81.6113 24.1303 81.5991 24.171C81.5944 24.1863 81.5852 24.2195 81.6142 24.217L82.0514 24.1788C82.0846 24.1759 82.1197 24.1509 82.1452 24.1324C82.1888 24.1007 82.2317 24.0602 82.2664 24.019C82.2933 23.9869 82.327 23.9503 82.3393 23.9097C82.3439 23.8943 82.3531 23.8612 82.3241 23.8637Z" fill="white"/>
<path d="M82.0671 24.5267L81.0366 24.6169C80.9549 24.624 80.8709 24.7182 80.8217 24.7767C80.8104 24.7899 80.701 24.9374 80.764 24.9319L81.7944 24.8418C81.8762 24.8346 81.9602 24.7405 82.0094 24.682C82.0205 24.6688 82.1301 24.5212 82.0671 24.5267Z" fill="white"/>
<path d="M82.2113 25.2563L81.618 25.3082C81.585 25.3111 81.5498 25.3363 81.5243 25.3546C81.4807 25.3864 81.4378 25.4268 81.4031 25.468C81.3762 25.5001 81.3425 25.5366 81.3302 25.5773C81.3256 25.5926 81.3164 25.6258 81.3455 25.6233L81.9387 25.5714C81.9719 25.5685 82.007 25.5435 82.0325 25.5249C82.0761 25.4932 82.119 25.4528 82.1537 25.4114C82.1806 25.3795 82.2143 25.3429 82.2266 25.3023C82.2312 25.2869 82.2404 25.2538 82.2113 25.2563Z" fill="white"/>
<path d="M61.9345 94.1095C61.9345 94.1095 69.5465 105.528 62.4535 110.718C57.185 114.572 31.4865 91.3415 25.6045 104.836C19.7225 118.33 50.5845 143.258 56.9175 139.782C65.7405 134.938 58.1285 118.33 51.2085 125.769C40.4834 137.298 20.0685 147.567 32.3515 115.562C44.5601 83.7503 19.5495 93.2445 15.0515 98.0885" stroke="black" stroke-width="0.346" stroke-dasharray="2.08 173"/>
<path d="M58.4731 95.1505C58.4731 95.1505 66.0851 106.569 58.9921 111.759C53.7235 115.614 28.0251 92.3825 22.1431 105.877C16.2611 119.371 47.1231 144.299 53.4561 140.823C62.2791 135.979 54.6671 119.371 47.7471 126.81C37.022 138.339 16.6071 148.608 28.8901 116.603C41.0987 84.7913 16.0881 94.2855 11.5901 99.1295" stroke="black" stroke-width="0.346" stroke-dasharray="5.19 173"/>
</g>
</g>
<defs>
<clipPath id="clip0_4551_26007">
<rect width="173" height="173" fill="white"/>
</clipPath>
</defs>
</svg>
