<svg xmlns="http://www.w3.org/2000/svg" width="17" height="17" viewBox="0 0 17 17" fill="none">
  <path d="M8.49995 11.3866C6.90661 11.3866 5.61328 10.0933 5.61328 8.49995C5.61328 6.90661 6.90661 5.61328 8.49995 5.61328C10.0933 5.61328 11.3866 6.90661 11.3866 8.49995C11.3866 10.0933 10.0933 11.3866 8.49995 11.3866ZM8.49995 6.61328C7.45995 6.61328 6.61328 7.45995 6.61328 8.49995C6.61328 9.53995 7.45995 10.3866 8.49995 10.3866C9.53995 10.3866 10.3866 9.53995 10.3866 8.49995C10.3866 7.45995 9.53995 6.61328 8.49995 6.61328Z" fill="#333333"/>
  <path d="M8.50022 14.513C5.99355 14.513 3.62688 13.0463 2.00021 10.4997C1.29355 9.39966 1.29355 7.60633 2.00021 6.49966C3.63355 3.95299 6.00022 2.48633 8.50022 2.48633C11.0002 2.48633 13.3669 3.95299 14.9935 6.49966C15.7002 7.59966 15.7002 9.393 14.9935 10.4997C13.3669 13.0463 11.0002 14.513 8.50022 14.513ZM8.50022 3.48633C6.34688 3.48633 4.28688 4.77966 2.84688 7.03966C2.34688 7.81966 2.34688 9.17966 2.84688 9.95966C4.28688 12.2197 6.34688 13.513 8.50022 13.513C10.6535 13.513 12.7135 12.2197 14.1535 9.95966C14.6535 9.17966 14.6535 7.81966 14.1535 7.03966C12.7135 4.77966 10.6535 3.48633 8.50022 3.48633Z" fill="#333333"/>
</svg>