<svg xmlns="http://www.w3.org/2000/svg" width="16" height="17" viewBox="0 0 16 17" fill="none">
  <path d="M8.00675 15.6596C7.58675 15.6596 7.17341 15.5196 6.84675 15.2396L5.79341 14.3396C5.68674 14.2462 5.42008 14.1529 5.28008 14.1529H4.11341C3.12674 14.1529 2.32674 13.3529 2.32674 12.3662V11.2262C2.32674 11.0862 2.23341 10.8196 2.14674 10.7196L1.24008 9.65289C0.693411 9.00622 0.693411 7.99289 1.24008 7.33956L2.14674 6.27289C2.23341 6.17289 2.32674 5.90622 2.32674 5.76622V4.63289C2.32674 3.64622 3.12674 2.84622 4.11341 2.84622H5.26675C5.40675 2.84622 5.66675 2.74622 5.78008 2.65289L6.83341 1.75289C7.48675 1.19956 8.50674 1.19956 9.16008 1.75289L10.2134 2.65289C10.3201 2.74622 10.5934 2.83956 10.7334 2.83956H11.8667C12.8534 2.83956 13.6534 3.63956 13.6534 4.62622V5.75956C13.6534 5.89956 13.7534 6.15956 13.8467 6.27289L14.7467 7.32622C15.3067 7.98622 15.3001 9.00622 14.7467 9.65289L13.8467 10.7062C13.7534 10.8196 13.6601 11.0796 13.6601 11.2196V12.3529C13.6601 13.3396 12.8601 14.1396 11.8734 14.1396H10.7401C10.6001 14.1396 10.3401 14.2396 10.2201 14.3329L9.16675 15.2329C8.84008 15.5196 8.42008 15.6596 8.00675 15.6596ZM4.11341 3.84622C3.68008 3.84622 3.32674 4.19956 3.32674 4.63289V5.76622C3.32674 6.14622 3.15341 6.62622 2.90674 6.91956L2.00008 7.98622C1.77341 8.25956 1.77341 8.73956 2.00008 9.00622L2.90008 10.0662C3.14008 10.3396 3.32008 10.8396 3.32008 11.2196V12.3596C3.32008 12.7929 3.67341 13.1462 4.10674 13.1462H5.26675C5.64008 13.1462 6.13341 13.3262 6.42675 13.5729L7.48674 14.4796C7.76008 14.7129 8.24008 14.7129 8.51341 14.4796L9.56675 13.5796C9.86675 13.3262 10.3534 13.1529 10.7267 13.1529H11.8601C12.2934 13.1529 12.6467 12.7996 12.6467 12.3662V11.2329C12.6467 10.8596 12.8267 10.3729 13.0734 10.0729L13.9801 9.01289C14.2134 8.73956 14.2134 8.25956 13.9801 7.98622L13.0801 6.93289C12.8267 6.63289 12.6534 6.14622 12.6534 5.77289V4.63289C12.6534 4.19956 12.3001 3.84622 11.8667 3.84622H10.7334C10.3534 3.84622 9.86008 3.66622 9.56675 3.41956L8.50675 2.51289C8.23341 2.27956 7.76008 2.27956 7.48008 2.51289L6.43341 3.41956C6.13341 3.66622 5.64675 3.84622 5.26675 3.84622H4.11341Z" fill="#3D663D"/>
  <path d="M8.00016 11.7474C7.6335 11.7474 7.3335 11.4474 7.3335 11.0807C7.3335 10.7141 7.62683 10.4141 8.00016 10.4141C8.36683 10.4141 8.66683 10.7141 8.66683 11.0807C8.66683 11.4474 8.3735 11.7474 8.00016 11.7474Z" fill="#3D663D"/>
  <path d="M8 9.64659C7.72667 9.64659 7.5 9.41992 7.5 9.14659V5.91992C7.5 5.64659 7.72667 5.41992 8 5.41992C8.27333 5.41992 8.5 5.64659 8.5 5.91992V9.13992C8.5 9.41992 8.28 9.64659 8 9.64659Z" fill="#3D663D"/>
</svg>