<svg xmlns="http://www.w3.org/2000/svg" width="17" height="17" viewBox="0 0 17 17" fill="none">
  <path d="M8.49984 9.00065C6.3865 9.00065 4.6665 7.28065 4.6665 5.16732C4.6665 3.05398 6.3865 1.33398 8.49984 1.33398C10.6132 1.33398 12.3332 3.05398 12.3332 5.16732C12.3332 7.28065 10.6132 9.00065 8.49984 9.00065ZM8.49984 2.33398C6.93984 2.33398 5.6665 3.60732 5.6665 5.16732C5.6665 6.72732 6.93984 8.00065 8.49984 8.00065C10.0598 8.00065 11.3332 6.72732 11.3332 5.16732C11.3332 3.60732 10.0598 2.33398 8.49984 2.33398Z" fill="#333333"/>
  <path d="M2.77344 15.6667C2.5001 15.6667 2.27344 15.44 2.27344 15.1667C2.27344 12.32 5.06677 10 8.5001 10C9.17344 10 9.83343 10.0867 10.4734 10.2667C10.7401 10.34 10.8934 10.6133 10.8201 10.88C10.7468 11.1467 10.4734 11.3 10.2068 11.2267C9.6601 11.0734 9.08677 11 8.5001 11C5.6201 11 3.27344 12.8667 3.27344 15.1667C3.27344 15.44 3.04677 15.6667 2.77344 15.6667Z" fill="#333333"/>
  <path d="M12.5002 15.6673C11.7135 15.6673 10.9668 15.374 10.3868 14.8473C10.1535 14.6473 9.94682 14.4007 9.78682 14.1273C9.49349 13.6473 9.3335 13.0807 9.3335 12.5007C9.3335 11.6673 9.65349 10.8873 10.2268 10.294C10.8268 9.67399 11.6335 9.33398 12.5002 9.33398C13.4068 9.33398 14.2668 9.72066 14.8535 10.3873C15.3735 10.9673 15.6668 11.714 15.6668 12.5007C15.6668 12.754 15.6335 13.0073 15.5668 13.2473C15.5002 13.5473 15.3735 13.8607 15.2002 14.134C14.6468 15.0807 13.6068 15.6673 12.5002 15.6673ZM12.5002 10.334C11.9068 10.334 11.3602 10.5673 10.9468 10.9873C10.5535 11.394 10.3335 11.9273 10.3335 12.5007C10.3335 12.894 10.4402 13.2806 10.6468 13.614C10.7535 13.8006 10.8935 13.9673 11.0535 14.1073C11.4535 14.474 11.9668 14.674 12.5002 14.674C13.2535 14.674 13.9668 14.274 14.3535 13.6273C14.4668 13.4407 14.5535 13.2273 14.6002 13.0207C14.6468 12.8473 14.6668 12.6807 14.6668 12.5073C14.6668 11.974 14.4668 11.4607 14.1068 11.0607C13.7068 10.594 13.1202 10.334 12.5002 10.334Z" fill="#333333"/>
  <path d="M13.4997 12.9863H11.5063C11.233 12.9863 11.0063 12.7597 11.0063 12.4863C11.0063 12.213 11.233 11.9863 11.5063 11.9863H13.4997C13.773 11.9863 13.9997 12.213 13.9997 12.4863C13.9997 12.7597 13.773 12.9863 13.4997 12.9863Z" fill="#333333"/>
  <path d="M12.5 14.007C12.2267 14.007 12 13.7803 12 13.507V11.5137C12 11.2403 12.2267 11.0137 12.5 11.0137C12.7733 11.0137 13 11.2403 13 11.5137V13.507C13 13.787 12.7733 14.007 12.5 14.007Z" fill="#333333"/>
</svg>