<svg width="17" height="16" viewBox="0 0 17 16" fill="none" xmlns="http://www.w3.org/2000/svg">
<path d="M10.6602 14.8476H10.5735C7.61351 14.8476 6.18684 13.681 5.94017 11.0676C5.91351 10.7943 6.11351 10.5476 6.39351 10.521C6.66017 10.4943 6.91351 10.701 6.94017 10.9743C7.13351 13.0676 8.12017 13.8476 10.5802 13.8476H10.6668C13.3802 13.8476 14.3402 12.8876 14.3402 10.1743V5.82763C14.3402 3.1143 13.3802 2.1543 10.6668 2.1543H10.5802C8.10684 2.1543 7.12017 2.94763 6.94017 5.08096C6.90684 5.3543 6.67351 5.56096 6.39351 5.5343C6.11351 5.5143 5.91351 5.26763 5.93351 4.9943C6.16017 2.34096 7.59351 1.1543 10.5735 1.1543H10.6602C13.9335 1.1543 15.3335 2.5543 15.3335 5.82763V10.1743C15.3335 13.4476 13.9335 14.8476 10.6602 14.8476Z" fill="#EA4335"/>
<path d="M10.5002 8.5H2.91357C2.64024 8.5 2.41357 8.27333 2.41357 8C2.41357 7.72667 2.64024 7.5 2.91357 7.5H10.5002C10.7736 7.5 11.0002 7.72667 11.0002 8C11.0002 8.27333 10.7736 8.5 10.5002 8.5Z" fill="#EA4335"/>
<path d="M4.40012 10.7326C4.27346 10.7326 4.14679 10.6859 4.04679 10.5859L1.81346 8.35258C1.62012 8.15925 1.62012 7.83925 1.81346 7.64591L4.04679 5.41258C4.24012 5.21924 4.56012 5.21924 4.75346 5.41258C4.94679 5.60591 4.94679 5.92591 4.75346 6.11925L2.87346 7.99925L4.75346 9.87925C4.94679 10.0726 4.94679 10.3926 4.75346 10.5859C4.66012 10.6859 4.52679 10.7326 4.40012 10.7326Z" fill="#EA4335"/>
</svg>
