<svg xmlns="http://www.w3.org/2000/svg" width="25" height="25" viewBox="0 0 25 25" fill="none">
  <path d="M12.5334 21.2624C10.1437 21.2624 7.75394 20.8829 5.48727 20.1239C4.62573 19.8265 3.96932 19.2214 3.68214 18.4316C3.38471 17.6419 3.48727 16.7701 3.95907 15.9906L5.13855 14.0316C5.38471 13.6214 5.61035 12.8009 5.61035 12.3188V9.35472C5.61035 5.53933 8.71804 2.43164 12.5334 2.43164C16.3488 2.43164 19.4565 5.53933 19.4565 9.35472V12.3188C19.4565 12.7906 19.6821 13.6214 19.9283 14.0419L21.0975 15.9906C21.5386 16.7291 21.6206 17.6214 21.3232 18.4316C21.0257 19.2419 20.3796 19.8573 19.5693 20.1239C17.3129 20.8829 14.9232 21.2624 12.5334 21.2624ZM12.5334 3.9701C9.56932 3.9701 7.14881 6.38036 7.14881 9.35472V12.3188C7.14881 13.0675 6.84112 14.1752 6.46163 14.8214L5.28214 16.7804C5.0565 17.1598 4.99496 17.5598 5.1283 17.8983C5.25137 18.247 5.55907 18.5137 5.97958 18.6573C10.2668 20.0932 14.8103 20.0932 19.0975 18.6573C19.4668 18.5342 19.7539 18.2573 19.8873 17.8881C20.0206 17.5188 19.9898 17.1188 19.7847 16.7804L18.6052 14.8214C18.2155 14.1547 17.918 13.0573 17.918 12.3086V9.35472C17.918 6.38036 15.5078 3.9701 12.5334 3.9701Z" fill="#292D32"/>
  <path d="M14.4411 4.24679C14.3693 4.24679 14.2975 4.23653 14.2257 4.21602C13.9283 4.13396 13.6411 4.07243 13.3642 4.0314C12.4924 3.91858 11.6514 3.98012 10.8616 4.21602C10.5745 4.30832 10.2668 4.21602 10.0719 4.00063C9.87701 3.78525 9.81548 3.47755 9.9283 3.20063C10.3488 2.12371 11.3745 1.41602 12.5437 1.41602C13.7129 1.41602 14.7386 2.11345 15.1591 3.20063C15.2616 3.47755 15.2103 3.78525 15.0155 4.00063C14.8616 4.16473 14.6462 4.24679 14.4411 4.24679Z" fill="#292D32"/>
  <path d="M12.5332 23.6001C11.5178 23.6001 10.5332 23.1898 9.81522 22.4719C9.09727 21.7539 8.68701 20.7693 8.68701 19.7539H10.2255C10.2255 20.359 10.4716 20.9539 10.9024 21.3847C11.3332 21.8154 11.928 22.0616 12.5332 22.0616C13.805 22.0616 14.8409 21.0257 14.8409 19.7539H16.3793C16.3793 21.877 14.6562 23.6001 12.5332 23.6001Z" fill="#292D32"/>
</svg>