<svg xmlns="http://www.w3.org/2000/svg" width="16" height="17" viewBox="0 0 16 17" fill="none">
  <path d="M8.0001 15.3338C7.45344 15.3338 6.90676 15.1605 6.45343 14.8205L2.9801 12.2205C2.33344 11.7338 1.94678 10.9605 1.94678 10.1538V1.67383H14.0534V10.1538C14.0534 10.9605 13.6668 11.7338 13.0201 12.2205L9.54677 14.8205C9.09344 15.1605 8.54677 15.3338 8.0001 15.3338ZM2.94678 2.66717V10.1472C2.94678 10.6405 3.18677 11.1138 3.5801 11.4138L7.05343 14.0138C7.61343 14.4338 8.39343 14.4338 8.95343 14.0138L12.4268 11.4138C12.8201 11.1138 13.0601 10.6405 13.0601 10.1472V2.66717H2.94678Z" fill="#333333"/>
  <path d="M14.6668 2.66602H1.3335C1.06016 2.66602 0.833496 2.43935 0.833496 2.16602C0.833496 1.89268 1.06016 1.66602 1.3335 1.66602H14.6668C14.9402 1.66602 15.1668 1.89268 15.1668 2.16602C15.1668 2.43935 14.9402 2.66602 14.6668 2.66602Z" fill="#333333"/>
  <path d="M10.6668 6.33398H5.3335C5.06016 6.33398 4.8335 6.10732 4.8335 5.83398C4.8335 5.56065 5.06016 5.33398 5.3335 5.33398H10.6668C10.9402 5.33398 11.1668 5.56065 11.1668 5.83398C11.1668 6.10732 10.9402 6.33398 10.6668 6.33398Z" fill="#333333"/>
  <path d="M10.6668 9.66602H5.3335C5.06016 9.66602 4.8335 9.43935 4.8335 9.16602C4.8335 8.89268 5.06016 8.66602 5.3335 8.66602H10.6668C10.9402 8.66602 11.1668 8.89268 11.1668 9.16602C11.1668 9.43935 10.9402 9.66602 10.6668 9.66602Z" fill="#333333"/>
</svg>