<svg xmlns="http://www.w3.org/2000/svg" width="17" height="16" viewBox="0 0 17 16" fill="none">
  <path d="M5.2797 15.1658C3.69304 15.1658 2.39307 14.0124 2.39307 12.5924V11.2324C2.39307 10.9591 2.61973 10.7324 2.89307 10.7324C3.1664 10.7324 3.39307 10.9591 3.39307 11.2324C3.39307 12.0658 4.1997 12.6924 5.2797 12.6924C6.3597 12.6924 7.16638 12.0658 7.16638 11.2324C7.16638 10.9591 7.39305 10.7324 7.66638 10.7324C7.93972 10.7324 8.16638 10.9591 8.16638 11.2324V12.5924C8.16638 14.0124 6.87304 15.1658 5.2797 15.1658ZM3.56637 13.2458C3.8597 13.7924 4.5197 14.1658 5.2797 14.1658C6.0397 14.1658 6.69971 13.7858 6.99304 13.2458C6.51971 13.5324 5.93304 13.6991 5.2797 13.6991C4.62637 13.6991 4.0397 13.5324 3.56637 13.2458Z" fill="#333333"/>
  <path d="M5.2797 11.8663C4.18637 11.8663 3.20639 11.3663 2.71973 10.573C2.50639 10.2263 2.39307 9.81963 2.39307 9.40629C2.39307 8.70629 2.69972 8.05295 3.25972 7.56629C4.33973 6.61962 6.19971 6.61965 7.28638 7.55965C7.84638 8.05299 8.15971 8.70629 8.15971 9.40629C8.15971 9.81963 8.04638 10.2263 7.83305 10.573C7.35305 11.3663 6.37304 11.8663 5.2797 11.8663ZM5.2797 7.83297C4.7597 7.83297 4.27972 8.00629 3.91972 8.31962C3.57972 8.61296 3.39307 8.99963 3.39307 9.40629C3.39307 9.63963 3.45304 9.85298 3.57304 10.053C3.87971 10.5596 4.53304 10.873 5.2797 10.873C6.02637 10.873 6.6797 10.5597 6.9797 10.0597C7.0997 9.86632 7.15971 9.6463 7.15971 9.41297C7.15971 9.0063 6.97306 8.61962 6.63306 8.31962C6.27972 8.00629 5.7997 7.83297 5.2797 7.83297Z" fill="#333333"/>
  <path d="M5.2797 13.7006C3.63304 13.7006 2.39307 12.6406 2.39307 11.2406V9.40731C2.39307 7.98731 3.68637 6.83398 5.2797 6.83398C6.03304 6.83398 6.75305 7.094 7.29305 7.56067C7.85305 8.054 8.16638 8.70731 8.16638 9.40731V11.2406C8.16638 12.6406 6.92637 13.7006 5.2797 13.7006ZM5.2797 7.83398C4.2397 7.83398 3.39307 8.54064 3.39307 9.40731V11.2406C3.39307 12.074 4.1997 12.7006 5.2797 12.7006C6.3597 12.7006 7.16638 12.074 7.16638 11.2406V9.40731C7.16638 9.00064 6.97973 8.61396 6.63973 8.31396C6.27973 8.0073 5.7997 7.83398 5.2797 7.83398Z" fill="#333333"/>
  <path d="M13.1931 9.86613C12.1864 9.86613 11.3331 9.11946 11.2531 8.15946C11.1998 7.60613 11.3998 7.06614 11.7998 6.67281C12.1331 6.32614 12.6064 6.13281 13.1064 6.13281H14.4998C15.1598 6.15281 15.6664 6.67278 15.6664 7.31279V8.68616C15.6664 9.32616 15.1598 9.84613 14.5198 9.86613H13.1931ZM14.4798 7.13281H13.1131C12.8798 7.13281 12.6665 7.21948 12.5131 7.37948C12.3198 7.56614 12.2264 7.81946 12.2531 8.07279C12.2864 8.51279 12.7131 8.86613 13.1931 8.86613H14.4998C14.5864 8.86613 14.6664 8.78616 14.6664 8.68616V7.31279C14.6664 7.21279 14.5864 7.13948 14.4798 7.13281Z" fill="#333333"/>
  <path d="M11.1667 14.1673H9.5C9.22667 14.1673 9 13.9407 9 13.6673C9 13.394 9.22667 13.1673 9.5 13.1673H11.1667C12.8867 13.1673 14 12.054 14 10.334V9.86731H13.1933C12.1867 9.86731 11.3333 9.12064 11.2533 8.16064C11.2 7.60731 11.4 7.06732 11.8 6.67399C12.1333 6.32732 12.6066 6.13399 13.1066 6.13399H13.9933V5.66732C13.9933 4.10732 13.08 3.03397 11.6 2.86064C11.44 2.83397 11.3 2.83398 11.16 2.83398H5.15999C4.99999 2.83398 4.84665 2.84731 4.69332 2.86731C3.22665 3.05398 2.32666 4.12065 2.32666 5.66732V7.00065C2.32666 7.27398 2.09999 7.50065 1.82666 7.50065C1.55333 7.50065 1.32666 7.27398 1.32666 7.00065V5.66732C1.32666 3.61398 2.59335 2.12732 4.56002 1.88066C4.74002 1.85399 4.94666 1.83398 5.15999 1.83398H11.16C11.32 1.83398 11.5267 1.84065 11.74 1.87398C13.7067 2.10065 14.9933 3.59398 14.9933 5.66732V6.63399C14.9933 6.90733 14.7667 7.13399 14.4933 7.13399H13.1066C12.8733 7.13399 12.66 7.22066 12.5067 7.38066C12.3133 7.56732 12.22 7.82064 12.2467 8.07397C12.28 8.51397 12.7067 8.86731 13.1867 8.86731H14.5C14.7733 8.86731 15 9.09398 15 9.36731V10.334C15 12.6273 13.46 14.1673 11.1667 14.1673Z" fill="#333333"/>
</svg>