<svg xmlns="http://www.w3.org/2000/svg" width="16" height="17" viewBox="0 0 16 17" fill="none">
  <path d="M11 8.81307C10.7267 8.81307 10.5 8.5864 10.5 8.31307V7.1331C10.5 6.81976 10.2467 6.56641 9.93333 6.56641H5C4.72667 6.56641 4.5 6.33974 4.5 6.06641C4.5 5.79307 4.72667 5.56641 5 5.56641H9.93333C10.8 5.56641 11.5 6.2731 11.5 7.1331V8.31307C11.5 8.5864 11.2733 8.81307 11 8.81307Z" fill="#333333"/>
  <path d="M6.12647 7.68724C5.9998 7.68724 5.87313 7.64055 5.77313 7.54055L4.64646 6.41388C4.45313 6.22055 4.45313 5.90055 4.64646 5.70722L5.77313 4.58055C5.96647 4.38721 6.28647 4.38721 6.4798 4.58055C6.67313 4.77388 6.67313 5.09388 6.4798 5.28721L5.70646 6.06057L6.4798 6.83388C6.67313 7.02722 6.67313 7.34722 6.4798 7.54055C6.3798 7.64055 6.25313 7.68724 6.12647 7.68724Z" fill="#333333"/>
  <path d="M11 11.44H6.06667C5.2 11.44 4.5 10.7334 4.5 9.87337V8.69336C4.5 8.42003 4.72667 8.19336 5 8.19336C5.27333 8.19336 5.5 8.42003 5.5 8.69336V9.87337C5.5 10.1867 5.75334 10.44 6.06667 10.44H11C11.2733 10.44 11.5 10.6667 11.5 10.94C11.5 11.2134 11.2733 11.44 11 11.44Z" fill="#333333"/>
  <path d="M9.87333 12.5603C9.74667 12.5603 9.62 12.5136 9.52 12.4136C9.32667 12.2203 9.32667 11.9003 9.52 11.7069L10.2933 10.9336L9.52 10.1603C9.32667 9.96693 9.32667 9.64693 9.52 9.45359C9.71333 9.26026 10.0333 9.26026 10.2267 9.45359L11.3533 10.5803C11.5467 10.7736 11.5467 11.0936 11.3533 11.2869L10.2267 12.4136C10.1333 12.5136 10 12.5603 9.87333 12.5603Z" fill="#333333"/>
  <path d="M8.00016 15.6673C4.04683 15.6673 0.833496 12.454 0.833496 8.50065C0.833496 4.54732 4.04683 1.33398 8.00016 1.33398C11.9535 1.33398 15.1668 4.54732 15.1668 8.50065C15.1668 12.454 11.9535 15.6673 8.00016 15.6673ZM8.00016 2.33398C4.60016 2.33398 1.8335 5.10065 1.8335 8.50065C1.8335 11.9007 4.60016 14.6673 8.00016 14.6673C11.4002 14.6673 14.1668 11.9007 14.1668 8.50065C14.1668 5.10065 11.4002 2.33398 8.00016 2.33398Z" fill="#333333"/>
</svg>