<svg xmlns="http://www.w3.org/2000/svg" width="17" height="16" viewBox="0 0 17 16" fill="none">
  <path d="M3.11992 11.0861C2.99325 11.0861 2.86658 11.0394 2.76658 10.9394C2.57325 10.7461 2.57325 10.4261 2.76658 10.2328L10.7332 2.26609C10.9266 2.07276 11.2466 2.07276 11.4399 2.26609C11.6332 2.45943 11.6332 2.77943 11.4399 2.97276L3.47325 10.9461C3.37992 11.0394 3.24658 11.0861 3.11992 11.0861Z" fill="#333333"/>
  <path d="M7.90019 12.687C7.77352 12.687 7.64686 12.6403 7.54686 12.5403C7.35352 12.347 7.35352 12.027 7.54686 11.8337L8.34686 11.0337C8.54019 10.8403 8.86019 10.8403 9.05352 11.0337C9.24686 11.227 9.24686 11.547 9.05352 11.7403L8.25352 12.5403C8.16019 12.6337 8.03352 12.687 7.90019 12.687Z" fill="#333333"/>
  <path d="M9.69316 10.8924C9.56649 10.8924 9.43982 10.8458 9.33982 10.7458C9.14649 10.5524 9.14649 10.2324 9.33982 10.0391L10.9332 8.44578C11.1265 8.25245 11.4465 8.25245 11.6398 8.44578C11.8332 8.63911 11.8332 8.95911 11.6398 9.15245L10.0465 10.7458C9.95316 10.8391 9.81982 10.8924 9.69316 10.8924Z" fill="#333333"/>
  <path d="M7.89978 15.166C7.24645 15.166 6.59311 14.766 5.79978 13.9726L2.52645 10.6993C0.933113 9.10596 0.93978 8.07929 2.54645 6.47263L6.97311 2.04596C8.57978 0.439292 9.60645 0.432625 11.1998 2.02596L14.4731 5.29929C16.0664 6.89263 16.0598 7.91929 14.4531 9.52596L10.0264 13.9526C9.21978 14.7593 8.55978 15.166 7.89978 15.166ZM9.09978 1.83263C8.75311 1.83263 8.31311 2.11929 7.67978 2.75263L3.25311 7.17929C2.61978 7.81263 2.33311 8.25263 2.33311 8.59263C2.33311 8.93929 2.59978 9.35929 3.23311 9.99263L6.50645 13.266C7.13978 13.8993 7.55311 14.166 7.89978 14.166C7.89978 14.166 7.89978 14.166 7.90645 14.166C8.25311 14.166 8.68645 13.8793 9.31978 13.246L13.7464 8.81929C14.3798 8.18596 14.6664 7.74596 14.6664 7.40596C14.6664 7.05929 14.3998 6.63929 13.7664 6.00596L10.4931 2.73263C9.86645 2.09929 9.44645 1.83263 9.09978 1.83263Z" fill="#333333"/>
  <path d="M15.1668 15.166H1.8335C1.56016 15.166 1.3335 14.9393 1.3335 14.666C1.3335 14.3927 1.56016 14.166 1.8335 14.166H15.1668C15.4402 14.166 15.6668 14.3927 15.6668 14.666C15.6668 14.9393 15.4402 15.166 15.1668 15.166Z" fill="#333333"/>
</svg>