<svg width="121" height="120" viewBox="0 0 121 120" fill="none" xmlns="http://www.w3.org/2000/svg">
<g clip-path="url(#clip0_3973_25768)">
<mask id="mask0_3973_25768" style="mask-type:luminance" maskUnits="userSpaceOnUse" x="0" y="0" width="121" height="120">
<path d="M120.5 0H0.5V120H120.5V0Z" fill="white"/>
</mask>
<g mask="url(#mask0_3973_25768)">
<path d="M120.5 0V120H0.5V0H120.5Z" fill="white"/>
<mask id="mask1_3973_25768" style="mask-type:luminance" maskUnits="userSpaceOnUse" x="0" y="0" width="121" height="120">
<path d="M0.5 0H120.5V120H0.5V0Z" fill="white"/>
</mask>
<g mask="url(#mask1_3973_25768)">
<path d="M77.5084 9.28076C78.471 8.76629 79.6671 9.20164 80.0738 10.2145L81.5824 13.9713C81.9332 14.8448 82.8884 15.3107 83.7927 15.0493L87.6819 13.9252C88.7304 13.6221 89.8098 14.2966 89.9971 15.3719L90.6916 19.3602C90.853 20.2876 91.6906 20.942 92.6295 20.8743L96.6673 20.5833C97.756 20.5048 98.6716 21.3891 98.6312 22.4798L98.4813 26.5253C98.4464 27.466 99.1297 28.2802 100.062 28.4092L104.072 28.9641C105.153 29.1137 105.865 30.169 105.599 31.2274L104.611 35.1535C104.381 36.0663 104.88 37.0048 105.766 37.3248L109.573 38.7013C110.6 39.0726 111.076 40.2527 110.596 41.2327L108.813 44.8675C108.398 45.7125 108.692 46.7344 109.491 47.2315L112.929 49.3695C113.856 49.9459 114.077 51.1994 113.403 52.0581L110.904 55.2429C110.323 55.9835 110.396 57.0436 111.075 57.6961L113.994 60.5023C114.78 61.2586 114.735 62.5306 113.898 63.2306L110.792 65.8263C110.069 66.4296 109.921 67.4822 110.449 68.2614L112.72 71.6129C113.333 72.5165 113.024 73.7516 112.059 74.2618L108.481 76.1548C107.649 76.5948 107.285 77.5937 107.64 78.4658L109.164 82.216C109.576 83.2273 109.018 84.3714 107.968 84.6699L104.073 85.7773C103.168 86.0348 102.605 86.9363 102.771 87.8631L103.482 91.8484C103.673 92.9227 102.89 93.9257 101.802 93.9998L97.7619 94.2734C96.8227 94.3371 96.085 95.1018 96.0537 96.0425L95.9214 100.089C95.8853 101.18 94.9105 101.998 93.8301 101.844L89.8222 101.272C88.8903 101.139 88.0087 101.733 87.7833 102.647L86.8123 106.577C86.5505 107.637 85.4267 108.235 84.4017 107.859L80.6003 106.466C79.7167 106.142 78.7311 106.54 78.3201 107.387L76.5533 111.03C76.077 112.011 74.8532 112.363 73.9288 111.782L70.5004 109.629C69.703 109.129 68.6564 109.313 68.0783 110.057L65.5927 113.252C64.9227 114.114 63.6528 114.203 62.8694 113.442L59.9633 110.624C59.2877 109.968 58.2252 109.932 57.5056 110.538L54.4098 113.147C53.5752 113.85 52.3147 113.673 51.7063 112.767L49.4498 109.406C48.925 108.625 47.8938 108.367 47.0634 108.811L43.4931 110.719C42.5303 111.234 41.3342 110.799 40.9277 109.785L39.419 106.029C39.0684 105.155 38.113 104.689 37.2088 104.95L33.3195 106.075C32.271 106.378 31.1916 105.703 31.0042 104.628L30.3099 100.64C30.1484 99.7126 29.311 99.0576 28.372 99.1256L24.3341 99.4166C23.2454 99.4954 22.3298 98.611 22.3702 97.5205L22.52 93.475C22.5551 92.5338 21.8716 91.7202 20.9394 91.5906L16.9291 91.0362C15.848 90.8866 15.1364 89.8307 15.4026 88.7725L16.3903 84.8467C16.6201 83.9334 16.1212 82.9948 15.2357 82.6754L11.4287 81.2986C10.4021 80.9279 9.92536 79.7473 10.4059 78.7673L12.1884 75.1325C12.6028 74.2874 12.3099 73.2656 11.5105 72.7686L8.07276 70.6306C7.14591 70.0542 6.92489 68.8006 7.59868 67.942L10.0979 64.7571C10.679 64.0166 10.6048 62.9563 9.92632 62.3039L7.00821 59.4979C6.22148 58.7413 6.2659 57.4692 7.1035 56.7694L10.2102 54.1738C10.9326 53.5703 11.0805 52.5177 10.5525 51.7385L8.28154 48.3871C7.66928 47.4836 7.97721 46.2485 8.94202 45.7381L12.5205 43.8452C13.3526 43.4051 13.7161 42.4062 13.3616 41.5342L11.8371 37.7839C11.4261 36.7728 11.9841 35.6287 13.0339 35.3301L16.9278 34.2226C17.8332 33.9651 18.3964 33.0637 18.231 32.137L17.5195 28.1517C17.3277 27.0772 18.1114 26.0742 19.2003 26.0003L23.2394 25.7265C24.1785 25.6628 24.9169 24.8983 24.9477 23.9575L25.0804 19.9113C25.1162 18.8205 26.0913 18.0022 27.1718 18.1564L31.1795 18.7284C32.1114 18.8614 32.9925 18.267 33.2183 17.3532L34.1893 13.423C34.4511 12.3634 35.575 11.7659 36.5999 12.1413L40.4011 13.534C41.2849 13.8579 42.2704 13.4598 42.6813 12.6129L44.4482 8.97039C44.9246 7.98842 46.1482 7.63756 47.0725 8.21788L50.5011 10.3705C51.2983 10.871 52.3451 10.6864 52.923 9.94343L55.4086 6.74803C56.0787 5.88651 57.3486 5.79773 58.1321 6.5576L61.0382 9.37599C61.7139 10.0313 62.7762 10.0684 63.4959 9.4618L66.5916 6.85299C67.4262 6.14965 68.6867 6.32678 69.2951 7.23295L71.5518 10.594C72.0765 11.3755 73.1077 11.6326 73.9379 11.1889L77.5084 9.28076Z" fill="#66A23D"/>
</g>
<mask id="mask2_3973_25768" style="mask-type:luminance" maskUnits="userSpaceOnUse" x="0" y="0" width="121" height="120">
<path d="M0.5 0H120.5V120H0.5V0Z" fill="white"/>
</mask>
<g mask="url(#mask2_3973_25768)">
<mask id="mask3_3973_25768" style="mask-type:luminance" maskUnits="userSpaceOnUse" x="0" y="0" width="121" height="120">
<path d="M0.5 0H120.5V120H0.5V0Z" fill="white"/>
</mask>
<g mask="url(#mask3_3973_25768)">
<mask id="mask4_3973_25768" style="mask-type:luminance" maskUnits="userSpaceOnUse" x="0" y="0" width="121" height="120">
<path d="M0.5 0H120.5V120H0.5V0Z" fill="white"/>
</mask>
<g mask="url(#mask4_3973_25768)">
<path d="M26.5 81.7599V51.6093C26.5 49.6547 27.4522 47.8225 29.0518 46.6991L56.5014 27.4218C58.5709 25.9686 61.3292 25.9686 63.3985 27.4219L90.8482 46.6991C92.4479 47.8225 93.4 49.6547 93.4 51.6093V81.7599C93.4 85.0736 90.7136 87.76 87.3997 87.76H32.5003C29.1864 87.76 26.5 85.0736 26.5 81.7599Z" fill="white"/>
</g>
<mask id="mask5_3973_25768" style="mask-type:luminance" maskUnits="userSpaceOnUse" x="0" y="0" width="121" height="120">
<path d="M0.5 0H120.5V120H0.5V0Z" fill="white"/>
</mask>
<g mask="url(#mask5_3973_25768)">
<path d="M35.4697 36.21C35.4697 33.467 37.7268 31.21 40.4697 31.21H78.7497C81.4926 31.21 83.7497 33.467 83.7497 36.21V76.55C83.7497 79.2929 81.4926 81.55 78.7497 81.55H40.4697C37.7268 81.55 35.4697 79.2929 35.4697 76.55V36.21Z" fill="#D1F9E4"/>
</g>
<mask id="mask6_3973_25768" style="mask-type:luminance" maskUnits="userSpaceOnUse" x="0" y="0" width="121" height="120">
<path d="M0.5 0H120.5V120H0.5V0Z" fill="white"/>
</mask>
<g mask="url(#mask6_3973_25768)">
<path d="M49.5459 79.6043L31.3301 52.59L60.2951 71.1068L89.26 52.59L74.09 79.2198C73.0228 81.0932 71.0327 82.25 68.8769 82.25H54.5202C52.5254 82.25 50.6611 81.2584 49.5459 79.6043Z" fill="white"/>
</g>
<mask id="mask7_3973_25768" style="mask-type:luminance" maskUnits="userSpaceOnUse" x="0" y="0" width="121" height="120">
<path d="M0.5 0H120.5V120H0.5V0Z" fill="white"/>
</mask>
<g mask="url(#mask7_3973_25768)">
<path d="M27.1904 81.76V48.45L59.9504 70.318L92.7104 48.45V81.7601C92.7104 85.0737 90.0241 87.76 86.7101 87.76H33.1907C29.8768 87.76 27.1904 85.0737 27.1904 81.76Z" fill="white"/>
</g>
<mask id="mask8_3973_25768" style="mask-type:luminance" maskUnits="userSpaceOnUse" x="0" y="0" width="121" height="120">
<path d="M0.5 0H120.5V120H0.5V0Z" fill="white"/>
</mask>
<g mask="url(#mask8_3973_25768)">
<path d="M52.5 48.5L58.4203 55L69.35 43" stroke="#3D663D" stroke-width="5" stroke-linecap="round" stroke-linejoin="round"/>
</g>
</g>
</g>
</g>
</g>
<defs>
<clipPath id="clip0_3973_25768">
<rect width="120" height="120" fill="white" transform="translate(0.5)"/>
</clipPath>
</defs>
</svg>
