<svg xmlns="http://www.w3.org/2000/svg" width="16" height="17" viewBox="0 0 16 17" fill="none">
  <path d="M9.47976 14.9196C8.69309 14.9196 7.57976 14.3662 6.69976 11.7196L6.21976 10.2796L4.77976 9.79956C2.13976 8.91956 1.58643 7.80623 1.58643 7.01956C1.58643 6.23956 2.13976 5.11956 4.77976 4.23289L10.4398 2.34623C11.8531 1.87289 13.0331 2.01289 13.7598 2.73289C14.4864 3.45289 14.6264 4.63956 14.1531 6.05289L12.2664 11.7129C11.3798 14.3662 10.2664 14.9196 9.47976 14.9196ZM5.09309 5.18623C3.23976 5.80623 2.57976 6.53956 2.57976 7.01956C2.57976 7.49956 3.23976 8.23289 5.09309 8.84623L6.77309 9.40623C6.91976 9.45289 7.03976 9.57289 7.08643 9.71956L7.64643 11.3996C8.25976 13.2529 8.99976 13.9129 9.47976 13.9129C9.95976 13.9129 10.6931 13.2529 11.3131 11.3996L13.1998 5.73956C13.5398 4.71289 13.4798 3.87289 13.0464 3.43956C12.6131 3.00623 11.7731 2.95289 10.7531 3.29289L5.09309 5.18623Z" fill="#333333"/>
  <path d="M6.74003 10.1007C6.61337 10.1007 6.4867 10.054 6.3867 9.95398C6.19337 9.76065 6.19337 9.44065 6.3867 9.24732L8.77337 6.85398C8.9667 6.66065 9.2867 6.66065 9.48003 6.85398C9.67337 7.04732 9.67337 7.36732 9.48003 7.56065L7.09337 9.95398C7.00003 10.054 6.8667 10.1007 6.74003 10.1007Z" fill="#333333"/>
</svg>