<svg xmlns="http://www.w3.org/2000/svg" width="17" height="17" viewBox="0 0 17 17" fill="none">
  <path d="M6.29837 12.2558C6.01922 12.2558 5.78773 12.0243 5.78773 11.7451V8.89236L5.29752 9.38258C5.10008 9.58002 4.77327 9.58002 4.57582 9.38258C4.37837 9.18513 4.37837 8.85832 4.57582 8.66087L5.93752 7.29917C6.0805 7.15619 6.30518 7.10853 6.49582 7.19024C6.68646 7.26513 6.80901 7.45577 6.80901 7.66002V11.7451C6.80901 12.0243 6.57752 12.2558 6.29837 12.2558Z" fill="#3D663D"/>
  <path d="M7.66019 9.53167C7.53083 9.53167 7.40147 9.48401 7.29934 9.38188L5.93764 8.02018C5.74019 7.82273 5.74019 7.49592 5.93764 7.29848C6.13508 7.10103 6.46189 7.10103 6.65934 7.29848L8.02104 8.66018C8.21849 8.85762 8.21849 9.18443 8.02104 9.38188C7.91891 9.48401 7.78955 9.53167 7.66019 9.53167Z" fill="#3D663D"/>
  <path d="M10.3837 15.6598H6.29857C2.60155 15.6598 1.02197 14.0802 1.02197 10.3832V6.29808C1.02197 2.60106 2.60155 1.02148 6.29857 1.02148H9.70282C9.98197 1.02148 10.2135 1.25297 10.2135 1.53212C10.2135 1.81127 9.98197 2.04276 9.70282 2.04276H6.29857C3.15984 2.04276 2.04325 3.15936 2.04325 6.29808V10.3832C2.04325 13.5219 3.15984 14.6385 6.29857 14.6385H10.3837C13.5224 14.6385 14.639 13.5219 14.639 10.3832V6.97893C14.639 6.69978 14.8705 6.46829 15.1496 6.46829C15.4288 6.46829 15.6603 6.69978 15.6603 6.97893V10.3832C15.6603 14.0802 14.0807 15.6598 10.3837 15.6598Z" fill="#3D663D"/>
  <path d="M15.1498 7.48856H12.4264C10.0979 7.48856 9.19238 6.58303 9.19238 4.25452V1.53112C9.19238 1.32686 9.31494 1.13622 9.50557 1.06133C9.69621 0.979628 9.91408 1.02729 10.0639 1.17027L15.5107 6.61708C15.6537 6.76005 15.7013 6.98473 15.6196 7.17537C15.5379 7.36601 15.3541 7.48856 15.1498 7.48856ZM10.2137 2.76346V4.25452C10.2137 6.01112 10.6698 6.46729 12.4264 6.46729H13.9175L10.2137 2.76346Z" fill="#3D663D"/>
</svg>