<svg width="43" height="43" viewBox="0 0 43 43" fill="none" xmlns="http://www.w3.org/2000/svg">
<g opacity="0.7" filter="url(#filter0_i_2441_12201)">
<path d="M0 8.5C0 4.08172 3.58172 0.5 8 0.5H35C39.4183 0.5 43 4.08172 43 8.5V34.5C43 38.9183 39.4183 42.5 35 42.5H8C3.58172 42.5 0 38.9183 0 34.5V8.5Z" fill="white"/>
<path d="M0.25 8.5C0.25 4.21979 3.71979 0.75 8 0.75H35C39.2802 0.75 42.75 4.21979 42.75 8.5V34.5C42.75 38.7802 39.2802 42.25 35 42.25H8C3.71979 42.25 0.25 38.7802 0.25 34.5V8.5Z" stroke="#EBEBEB" stroke-width="0.5"/>
<g opacity="0.4">
<path d="M12.1699 16.9414L20.9999 22.0514L29.7699 16.9714" stroke="#3D663D" stroke-width="1.5" stroke-linecap="round" stroke-linejoin="round"/>
<path d="M21 31.111V22.041" stroke="#3D663D" stroke-width="1.5" stroke-linecap="round" stroke-linejoin="round"/>
</g>
<path d="M18.9301 11.9793L13.5901 14.9393C12.3801 15.6093 11.3901 17.2893 11.3901 18.6693V24.3193C11.3901 25.6993 12.3801 27.3793 13.5901 28.0493L18.9301 31.0193C20.0701 31.6493 21.9401 31.6493 23.0801 31.0193L28.4201 28.0493C29.6301 27.3793 30.6201 25.6993 30.6201 24.3193V18.6693C30.6201 17.2893 29.6301 15.6093 28.4201 14.9393L23.0801 11.9693C21.9301 11.3393 20.0701 11.3393 18.9301 11.9793Z" stroke="#3D663D" stroke-width="1.5" stroke-linecap="round" stroke-linejoin="round"/>
</g>
<defs>
<filter id="filter0_i_2441_12201" x="0" y="0.5" width="45" height="44" filterUnits="userSpaceOnUse" color-interpolation-filters="sRGB">
<feFlood flood-opacity="0" result="BackgroundImageFix"/>
<feBlend mode="normal" in="SourceGraphic" in2="BackgroundImageFix" result="shape"/>
<feColorMatrix in="SourceAlpha" type="matrix" values="0 0 0 0 0 0 0 0 0 0 0 0 0 0 0 0 0 0 127 0" result="hardAlpha"/>
<feOffset dx="2" dy="2"/>
<feGaussianBlur stdDeviation="1"/>
<feComposite in2="hardAlpha" operator="arithmetic" k2="-1" k3="1"/>
<feColorMatrix type="matrix" values="0 0 0 0 0 0 0 0 0 0 0 0 0 0 0 0 0 0 0.06 0"/>
<feBlend mode="normal" in2="shape" result="effect1_innerShadow_2441_12201"/>
</filter>
</defs>
</svg>
